<svg width="31" height="31" viewBox="0 0 31 31" fill="none" xmlns="http://www.w3.org/2000/svg">
<path d="M29.9865 26.5846L24.0664 20.6645C23.7992 20.3973 23.437 20.2488 23.0569 20.2488H22.0891C23.7279 18.1528 24.7017 15.5163 24.7017 12.6483C24.7017 5.82564 19.1735 0.29744 12.3509 0.29744C5.5282 0.29744 0 5.82564 0 12.6483C0 19.471 5.5282 24.9992 12.3509 24.9992C15.2189 24.9992 17.8553 24.0254 19.9514 22.3865V23.3544C19.9514 23.7344 20.0999 24.0966 20.3671 24.3638L26.2872 30.2839C26.8453 30.8421 27.7479 30.8421 28.3001 30.2839L29.9806 28.6035C30.5387 28.0453 30.5387 27.1428 29.9865 26.5846ZM12.3509 20.2488C8.15276 20.2488 4.75034 16.8524 4.75034 12.6483C4.75034 8.4502 8.14682 5.04777 12.3509 5.04777C16.549 5.04777 19.9514 8.44426 19.9514 12.6483C19.9514 16.8464 16.5549 20.2488 12.3509 20.2488Z" fill="white"/>
</svg>
