<svg xmlns="http://www.w3.org/2000/svg" xmlns:xlink="http://www.w3.org/1999/xlink" viewBox="0 0 1920 472"><defs><style>.cls-1{fill:url(#POKEJAN);}.cls-2{fill:#f7f7f7;}</style><linearGradient id="POKEJAN" y1="236" x2="1920" y2="236" gradientUnits="userSpaceOnUse"><stop offset="0" stop-color="#007fff"/><stop offset="0.11" stop-color="#0077ef"/><stop offset="0.32" stop-color="#006ad4"/><stop offset="0.54" stop-color="#0060c1"/><stop offset="0.76" stop-color="#005bb6"/><stop offset="1" stop-color="#0059b2"/></linearGradient></defs><title>Asset 5</title><g id="Layer_2" data-name="Layer 2"><g id="Layer_4" data-name="Layer 4"><rect class="cls-1" width="1920" height="472"/><path class="cls-2" d="M803.07,187.42h38.55c22.77,0,37.16,13,37.16,32.69v.28c0,21.93-17.6,33.38-39.11,33.38H820.25V285.2H803.07Zm37.16,50.85c13,0,21.09-7.27,21.09-17.46v-.28c0-11.46-8.24-17.46-21.09-17.46h-20v35.2Z"/><path class="cls-2" d="M872.49,236.59v-.28c0-27.52,21.24-50.57,51.27-50.57s51,22.77,51,50.29v.28c0,27.52-21.24,50.57-51.27,50.57S872.49,264.11,872.49,236.59Zm84.24,0v-.28c0-19-13.83-34.78-33.25-34.78s-33,15.51-33,34.5v.28c0,19,13.83,34.79,33.25,34.79S956.73,255.59,956.73,236.59Z"/><path class="cls-2" d="M976,187.42h17.18v49.17l46.52-49.17h21.09l-40.65,42.05,42.47,55.73H1041.8l-33.39-44-15.23,15.65V285.2H976Z"/><path class="cls-2" d="M1057.72,187.42h72.5v15.37H1074.9v25.42h49v15.37h-49v26.26h56V285.2h-73.2Z"/><path class="cls-2" d="M1154.1,286.88a49,49,0,0,1-11.59-1.26,39.74,39.74,0,0,1-9.36-3.49,37.78,37.78,0,0,1-7.54-5.24,40.21,40.21,0,0,1-5.87-6.49l17.46-16.49a34.68,34.68,0,0,0,7.2,6.71,14.16,14.16,0,0,0,8,2.37,10.32,10.32,0,0,0,8.17-3.42q3-3.42,3-10.27V187.42h27v62a47.9,47.9,0,0,1-2.37,15.93,30.71,30.71,0,0,1-7.27,11.59,32,32,0,0,1-11.66,7.41A43.47,43.47,0,0,1,1154.1,286.88Z"/><path class="cls-2" d="M1221.43,186.72h26.13l41.62,98.48h-29L1253,267.74h-37.71l-7,17.46h-28.49Zm23.75,60.07-10.9-27.8-11,27.8Z"/><path class="cls-2" d="M1279.68,187.42H1305l40.32,51.69V187.42H1372V285.2h-23.8l-41.86-53.64V285.2h-26.68Z"/><path class="cls-2" d="M756.69,216q-7.91-44.71-15.79-89.41L714.11,146q-24.86,18-49.71,35.86A57.29,57.29,0,0,0,645.62,180a49.53,49.53,0,0,0-22.11,7.55c-15.7,9.67-27.61,28.51-27.65,49.11a53.74,53.74,0,0,0,.36,6.56,56.28,56.28,0,0,0,11.38,27.67L588,296l-39.66-39.41q7.89,44.7,15.79,89.41l26.79-19.37q24.33-17.58,48.68-35.13c.51.12,1,.27,1.53.38a56.65,56.65,0,0,0,67.68-62.46,52.15,52.15,0,0,0-11.71-27.29l19.9-25.5Zm-106-5.48a25.81,25.81,0,0,1,27.49,23H663.36a11.18,11.18,0,0,0-21.68,0H626.86A25.83,25.83,0,0,1,650.69,210.56Zm3.66,51.5a25.81,25.81,0,0,1-27.49-23h14.82a11.19,11.19,0,0,0,21.68,0h14.82A25.8,25.8,0,0,1,654.35,262.06Z"/></g></g></svg>