<svg width="209" height="56" viewBox="0 0 209 56" fill="none" xmlns="http://www.w3.org/2000/svg">
<g clip-path="url(#clip0_13_26)">
<path d="M52.8621 22.8251C51.5273 15.2167 50.1919 7.60837 48.8559 0L42.0573 4.94527C37.8557 8.00207 33.6518 11.0537 29.4456 14.1C27.8934 13.6795 26.2825 13.5208 24.6787 13.6304C22.6833 13.8139 20.7603 14.4741 19.0696 15.5559C15.0928 18.0277 12.0653 22.8356 12.0549 28.0939C12.05 28.6536 12.0795 29.213 12.1431 29.769C12.4558 32.342 13.4541 34.7822 15.0323 36.8312L10.0648 43.2359L0 33.1766C1.33482 40.785 2.67022 48.3928 4.0062 56L10.8048 51.0565C14.9199 48.0634 19.0379 45.0739 23.1588 42.0878C23.2885 42.1192 23.4147 42.1574 23.5461 42.1853C25.7833 42.6499 28.0983 42.5715 30.2993 41.9567C32.5003 41.3419 34.5241 40.2083 36.2028 38.6498C37.8816 37.0914 39.1671 35.1529 39.9528 32.995C40.7384 30.8372 41.0017 28.522 40.7207 26.2414C40.4205 23.6789 39.3881 21.259 37.7485 19.2749C39.4326 17.1064 41.1161 14.9361 42.799 12.7641L52.8621 22.8251ZM25.9668 21.4336C27.6583 21.3125 29.3305 21.8564 30.6315 22.9508C31.9324 24.0451 32.7606 25.6045 32.9418 27.3007H29.1811C29.0258 26.6855 28.671 26.1399 28.173 25.7502C27.6749 25.3606 27.062 25.149 26.431 25.149C25.8001 25.149 25.1871 25.3606 24.6891 25.7502C24.191 26.1399 23.8363 26.6855 23.681 27.3007H19.9203C20.0835 25.7639 20.7785 24.3337 21.8838 23.2602C22.9891 22.1868 24.4344 21.5383 25.9668 21.4283V21.4336ZM26.897 34.5786C25.2038 34.6991 23.5302 34.1536 22.2288 33.0572C20.9274 31.9609 20.0998 30.3991 19.9203 28.701H23.6879C23.8432 29.3162 24.198 29.8618 24.696 30.2515C25.1941 30.6412 25.807 30.8528 26.438 30.8528C27.0689 30.8528 27.6819 30.6412 28.1799 30.2515C28.678 29.8618 29.0327 29.3162 29.188 28.701H32.9504C32.7866 30.2388 32.0905 31.6697 30.9839 32.7432C29.8772 33.8168 28.4306 34.4646 26.897 34.5734V34.5786Z" fill="white"/>
<path d="M64.6317 15.5194H74.4146C80.1931 15.5194 83.8431 18.8365 83.8431 23.8688V23.9401C83.8431 29.5394 79.377 32.4634 73.9184 32.4634H68.9889V40.4858H64.6317V15.5194ZM74.0602 28.4992C77.3575 28.4992 79.4202 26.645 79.4202 24.0427V23.9714C79.4202 21.0474 77.3281 19.5132 74.0602 19.5132H68.9889V28.4992H74.0602Z" fill="white"/>
<path d="M82.2489 28.0713V28.0052C82.2489 20.9813 87.6366 15.0967 95.2565 15.0967C102.876 15.0967 108.195 20.91 108.195 27.9339V28.0052C108.195 35.0309 102.807 40.9137 95.1856 40.9137C87.564 40.9137 82.2489 35.097 82.2489 28.0713ZM103.622 28.0713V28.0052C103.622 23.1556 100.113 19.134 95.1856 19.134C90.2579 19.134 86.8205 23.0913 86.8205 27.9409V28.0052C86.8205 32.8548 90.3305 36.8851 95.2565 36.8851C100.183 36.8851 103.622 32.9209 103.622 28.0713Z" fill="white"/>
<path d="M108.513 15.5194H112.872V28.0713L124.676 15.5194H130.036L119.721 26.2536L130.496 40.4806H125.207L116.735 29.2489L112.87 33.2497V40.4875H108.513V15.5194Z" fill="white"/>
<path d="M129.248 15.5194H147.645V19.4419H133.608V25.9318H146.049V29.8543H133.608V36.5581H147.821V40.4806H129.248V15.5194Z" fill="white"/>
<path d="M153.712 40.9085C152.723 40.9196 151.736 40.8122 150.773 40.5884C149.947 40.3929 149.148 40.0931 148.397 39.6961C147.707 39.3305 147.064 38.8813 146.483 38.3584C145.928 37.8622 145.429 37.3063 144.994 36.7007L149.426 32.493C149.95 33.1474 150.565 33.7237 151.25 34.2046C151.853 34.6095 152.564 34.8212 153.288 34.8117C154.163 34.8117 154.855 34.5218 155.363 33.942C155.872 33.3622 156.122 32.4849 156.115 31.3102V15.5194H162.957V31.3484C162.957 32.9174 162.756 34.2725 162.354 35.4136C161.969 36.5262 161.338 37.5371 160.511 38.3706C159.672 39.2095 158.662 39.8541 157.551 40.2597C156.32 40.7041 155.02 40.9238 153.712 40.9085Z" fill="white"/>
<path d="M170.79 15.342H177.419L187.982 40.4806H180.609L178.801 36.0241H169.23L167.458 40.4806H160.227L170.79 15.342ZM176.816 30.6753L174.049 23.5783L171.25 30.6753H176.816Z" fill="white"/>
<path d="M185.571 15.5194H192L202.229 28.7132V15.5194H209V40.4806H202.962L192.341 26.7876V40.4806H185.571V15.5194Z" fill="white"/>
</g>
<defs>
<clipPath id="clip0_13_26">
<rect width="209" height="56" fill="white"/>
</clipPath>
</defs>
</svg>
