<svg xmlns="http://www.w3.org/2000/svg" xmlns:xlink="http://www.w3.org/1999/xlink" viewBox="0 0 305.73 321.94"><defs><style>.cls-1{fill:url(#linear-gradient);}</style><linearGradient id="linear-gradient" y1="160.97" x2="305.73" y2="160.97" gradientUnits="userSpaceOnUse"><stop offset="0" stop-color="#007fff"/><stop offset="0.11" stop-color="#0077ef"/><stop offset="0.32" stop-color="#006ad4"/><stop offset="0.54" stop-color="#0060c1"/><stop offset="0.76" stop-color="#005bb6"/><stop offset="1" stop-color="#0059b2"/></linearGradient></defs><title>Asset 3</title><g id="Layer_2" data-name="Layer 2"><g id="Layer_3" data-name="Layer 3"><path class="cls-1" d="M305.73,131.22Q294.15,65.61,282.56,0L243.24,28.43Q206.79,54.79,170.3,81.06a84.11,84.11,0,0,0-27.57-2.7,72.79,72.79,0,0,0-32.44,11.07c-23,14.21-40.51,41.85-40.57,72.08a78.2,78.2,0,0,0,.51,9.63,82.67,82.67,0,0,0,16.71,40.6L58.21,248.56,0,190.73q11.58,65.61,23.17,131.21l39.32-28.42q35.7-25.81,71.45-51.56c.75.18,1.48.4,2.24.56a83.15,83.15,0,0,0,99.33-91.66,76.69,76.69,0,0,0-17.19-40.05q14.61-18.7,29.21-37.43Zm-155.55-8a37.87,37.87,0,0,1,40.34,33.73H168.77a16.41,16.41,0,0,0-31.81,0H115.21A37.88,37.88,0,0,1,150.18,123.19Zm5.38,75.57A37.89,37.89,0,0,1,115.21,165H137a16.41,16.41,0,0,0,31.81,0h21.76A37.89,37.89,0,0,1,155.56,198.76Z"/></g></g></svg>